<svg xmlns="http://www.w3.org/2000/svg" viewBox="0 0 512 512" style="height: 512px; width: 512px;"><defs><filter id="shadow-5" height="300%" width="300%" x="-100%" y="-100%"><feFlood flood-color="rgba(144, 19, 254, 1)" result="flood"></feFlood><feComposite in="flood" in2="SourceGraphic" operator="atop" result="composite"></feComposite><feGaussianBlur in="composite" stdDeviation="15" result="blur"></feGaussianBlur><feOffset dx="0" dy="0" result="offset"></feOffset><feComposite in="SourceGraphic" in2="offset" operator="over"></feComposite></filter><filter id="shadow-6" height="300%" width="300%" x="-100%" y="-100%"><feFlood flood-color="rgba(144, 19, 254, 1)" result="flood"></feFlood><feComposite in="flood" in2="SourceGraphic" operator="atop" result="composite"></feComposite><feGaussianBlur in="composite" stdDeviation="15" result="blur"></feGaussianBlur><feOffset dx="0" dy="0" result="offset"></feOffset><feComposite in="SourceGraphic" in2="offset" operator="over"></feComposite></filter><filter id="shadow-7" height="300%" width="300%" x="-100%" y="-100%"><feFlood flood-color="rgba(144, 19, 254, 1)" result="flood"></feFlood><feComposite in="flood" in2="SourceGraphic" operator="atop" result="composite"></feComposite><feGaussianBlur in="composite" stdDeviation="15" result="blur"></feGaussianBlur><feOffset dx="0" dy="0" result="offset"></feOffset><feComposite in="SourceGraphic" in2="offset" operator="over"></feComposite></filter><filter id="shadow-8" height="300%" width="300%" x="-100%" y="-100%"><feFlood flood-color="rgba(144, 19, 254, 1)" result="flood"></feFlood><feComposite in="flood" in2="SourceGraphic" operator="atop" result="composite"></feComposite><feGaussianBlur in="composite" stdDeviation="15" result="blur"></feGaussianBlur><feOffset dx="0" dy="0" result="offset"></feOffset><feComposite in="SourceGraphic" in2="offset" operator="over"></feComposite></filter><filter id="shadow-9" height="300%" width="300%" x="-100%" y="-100%"><feFlood flood-color="rgba(144, 19, 254, 1)" result="flood"></feFlood><feComposite in="flood" in2="SourceGraphic" operator="atop" result="composite"></feComposite><feGaussianBlur in="composite" stdDeviation="15" result="blur"></feGaussianBlur><feOffset dx="0" dy="0" result="offset"></feOffset><feComposite in="SourceGraphic" in2="offset" operator="over"></feComposite></filter><filter id="shadow-10" height="300%" width="300%" x="-100%" y="-100%"><feFlood flood-color="rgba(144, 19, 254, 1)" result="flood"></feFlood><feComposite in="flood" in2="SourceGraphic" operator="atop" result="composite"></feComposite><feGaussianBlur in="composite" stdDeviation="15" result="blur"></feGaussianBlur><feOffset dx="0" dy="0" result="offset"></feOffset><feComposite in="SourceGraphic" in2="offset" operator="over"></feComposite></filter><filter id="shadow-11" height="300%" width="300%" x="-100%" y="-100%"><feFlood flood-color="rgba(144, 19, 254, 1)" result="flood"></feFlood><feComposite in="flood" in2="SourceGraphic" operator="atop" result="composite"></feComposite><feGaussianBlur in="composite" stdDeviation="15" result="blur"></feGaussianBlur><feOffset dx="0" dy="0" result="offset"></feOffset><feComposite in="SourceGraphic" in2="offset" operator="over"></feComposite></filter><linearGradient x1="0" x2="0" y1="0" y2="1" id="gradient-7"><stop offset="0%" stop-color="#9013fe" stop-opacity="1"></stop><stop offset="100%" stop-color="#d0021b" stop-opacity="1"></stop></linearGradient><linearGradient x1="0" x2="0" y1="0" y2="1" id="gradient-8"><stop offset="0%" stop-color="#9013fe" stop-opacity="1"></stop><stop offset="100%" stop-color="#d0021b" stop-opacity="1"></stop></linearGradient><linearGradient x1="0" x2="0" y1="0" y2="1" id="gradient-9"><stop offset="0%" stop-color="#f8e71c" stop-opacity="1"></stop><stop offset="100%" stop-color="#f5a623" stop-opacity="1"></stop></linearGradient><linearGradient x1="0" x2="0" y1="0" y2="1" id="gradient-10"><stop offset="0%" stop-color="#d0021b" stop-opacity="1"></stop><stop offset="100%" stop-color="#bd10e0" stop-opacity="1"></stop></linearGradient><linearGradient x1="0" x2="0" y1="0" y2="1" id="gradient-11"><stop offset="0%" stop-color="#d0021b" stop-opacity="1"></stop><stop offset="100%" stop-color="#bd10e0" stop-opacity="1"></stop></linearGradient></defs><path d="M0 0h512v512H0z" fill="#000000" fill-opacity="0.01"></path><g class="" transform="translate(0,0)" style="touch-action: none;"><path d="M261.912 19.12c-1.538-.043-3.12.126-4.658.126-32.843 0-59.584 33.906-59.584 75.918 0 21.273 7.082 40.47 18.096 54.287-56.102 8.702-75.978 74.546-72.207 145.62 3.592-1.208 7.427-1.873 11.41-1.873 6.244 0 12.135 1.614 17.28 4.442l-.61-61.974 18.688-.184.44 44.66h56.462V173.108c3.217.747 6.555 1.155 10.002 1.155 2.98 0 5.88-.306 8.688-.867l-.002 106.748h56.428l.44-44.66 18.687.183-.606 61.8c5.068-2.718 10.842-4.27 16.957-4.27 4.55 0 8.91.865 12.932 2.423 3.46-71.845-21.24-135.553-72.88-145.282.025-.037.047-.076.07-.113 11.458-13.873 18.894-33.305 18.894-55.06 0-39.39-23.415-72.02-53.406-75.92-.5-.074-1.01-.112-1.522-.126zm154.518 6.04l-6.543 24.418-17.875-17.875-13.215 13.215 17.875 17.875-24.416 6.54 4.836 18.054 24.418-6.54-6.543 24.415 18.05 4.838 6.544-24.418 17.876 17.875 13.214-13.215-17.875-17.875 24.418-6.54-4.836-18.054-24.418 6.54L434.48 30 416.43 25.16zM96.31 65.998l-11.08 41.354-30.273-30.274L41.74 90.293l30.272 30.27-41.348 11.08 4.836 18.052 41.352-11.078-11.08 41.352 18.05 4.837 11.08-41.35 30.27 30.27 13.215-13.215-30.27-30.272 41.352-11.078-4.837-18.053-41.352 11.078 11.08-41.352-18.05-4.838zm160.922 2.426c12.15 0 23.74 9.425 29.342 24.03h-58.68c5.602-14.604 17.19-24.03 29.338-24.03zm-32.824 42.72h65.65c.005.284.018.566.018.854 0 25.2-15.88 43.576-32.844 43.576s-32.84-18.377-32.84-43.576c0-.288.012-.57.016-.855zm222.737 111.88l-18.053 4.84 6.543 24.417-24.42-6.542-4.836 18.053 24.415 6.542-17.875 17.875 13.215 13.215 17.877-17.875 6.543 24.418 18.052-4.838-6.543-24.416 24.416 6.542 4.836-18.053-24.416-6.542 17.875-17.875-13.214-13.215-17.873 17.873-6.542-24.415zm-374.717 66.08l-6.54 24.417-17.876-17.874-13.215 13.215 17.875 17.876-24.42 6.543 4.838 18.052 24.418-6.543-6.543 24.417 18.053 4.836 6.54-24.418L93.435 367.5l13.214-13.215-17.873-17.875 24.416-6.54-4.836-18.054-24.416 6.543 6.542-24.42-18.052-4.835zm118.523 9.726l.626 63.557 2.207 33.51h53.428v-76.444h18.69v76.443h51.707l4.088-54.89h.053l.082-8.31c-.103-1.102-.162-2.216-.162-3.342 0-1.366.084-2.712.234-4.04l.26-26.484h-131.21zm-35.98 13.055c-9.76 0-17.47 7.712-17.47 17.47 0 9.755 7.71 17.467 17.47 17.467 9.757 0 17.466-7.712 17.466-17.468 0-9.76-7.708-17.47-17.467-17.47zm202.854 0c-9.758 0-17.467 7.712-17.467 17.47 0 9.755 7.71 17.467 17.467 17.467 9.76 0 17.47-7.712 17.47-17.468 0-9.76-7.71-17.47-17.47-17.47zm35.283 73.426l-8.203 33.588L359.916 395l-12.918 13.506 24.986 23.896-33.19 9.692 5.237 17.94 33.195-9.692-8.205 33.59 18.156 4.433 8.203-33.588 24.985 23.897 12.918-13.506-24.986-23.898 33.19-9.69-5.24-17.94-33.188 9.692 8.202-33.588-18.155-4.433zm-198.09 29.274l2.647 40.184h49.547v-40.184h-52.194zm70.883 0v40.184h47.32l2.995-40.184H265.9zm-67.005 58.873l1.423 21.59h46.893v-21.59h-48.315zm67.005 0v21.59h44.32l1.608-21.59H265.9z" fill="#ffffff" fill-opacity="1"></path></g></svg>